<svg xmlns="http://www.w3.org/2000/svg" width="80" height="80" viewBox="0 0 80 80" fill="none">
  <g clip-path="url(#clip0_0_316)">
    <path d="M69.9963 66.6666C69.9963 67.5507 69.6451 68.3985 69.02 69.0236C68.3948 69.6487 67.547 69.9999 66.6629 69.9999H13.3296C12.4456 69.9999 11.5977 69.6487 10.9726 69.0236C10.3475 68.3985 9.99628 67.5507 9.99628 66.6666V31.6333C9.99593 31.1253 10.1117 30.624 10.3347 30.1676C10.5577 29.7112 10.882 29.3118 11.2829 28.9999L37.9496 8.25993C38.5348 7.80475 39.2549 7.55762 39.9963 7.55762C40.7376 7.55762 41.4578 7.80475 42.0429 8.25993L68.7096 28.9999C69.1105 29.3118 69.4349 29.7112 69.6579 30.1676C69.8809 30.624 69.9966 31.1253 69.9963 31.6333V66.6666ZM63.3296 63.3333V33.2599L39.9963 15.1133L16.6629 33.2599V63.3333H63.3296ZM23.3296 49.9999H56.6629V56.6666H23.3296V49.9999Z" fill="#FCFCFC"/>
  </g>
  <defs>
    <clipPath id="clip0_0_316">
      <rect width="80" height="80" fill="white"/>
    </clipPath>
  </defs>
</svg>