<svg xmlns="http://www.w3.org/2000/svg" width="36" height="36" viewBox="0 0 36 36" fill="none">
  <rect x="0.5" y="0.5" width="35" height="35" rx="4.5" stroke="#A7A6A6"/>
  <path fill-rule="evenodd" clip-rule="evenodd" d="M9 18C9 14.4049 9 12.6073 9.85669 11.3126C10.2392 10.7344 10.7344 10.2392 11.3126 9.85669C12.6073 9 14.4049 9 18 9C21.5951 9 23.3927 9 24.6874 9.85669C25.2656 10.2392 25.7608 10.7344 26.1433 11.3126C27 12.6073 27 14.4049 27 18C27 21.5951 27 23.3927 26.1433 24.6874C25.7608 25.2656 25.2656 25.7608 24.6874 26.1433C23.3927 27 21.5951 27 18 27C14.4049 27 12.6073 27 11.3126 26.1433C10.7344 25.7608 10.2392 25.2656 9.85669 24.6874C9 23.3927 9 21.5951 9 18ZM22.6596 18C22.6596 20.5734 20.5735 22.6595 18.0002 22.6595C15.4269 22.6595 13.3408 20.5734 13.3408 18C13.3408 15.4267 15.4269 13.3406 18.0002 13.3406C20.5735 13.3406 22.6596 15.4267 22.6596 18ZM18.0002 21.083C19.7029 21.083 21.0832 19.7027 21.0832 18C21.0832 16.2973 19.7029 14.917 18.0002 14.917C16.2975 14.917 14.9172 16.2973 14.9172 18C14.9172 19.7027 16.2975 21.083 18.0002 21.083ZM22.8436 14.2014C23.4483 14.2014 23.9385 13.7112 23.9385 13.1065C23.9385 12.5019 23.4483 12.0117 22.8436 12.0117C22.239 12.0117 21.7488 12.5019 21.7488 13.1065C21.7488 13.7112 22.239 14.2014 22.8436 14.2014Z" fill="#4F4D4D"/>
</svg>