<svg xmlns="http://www.w3.org/2000/svg" width="36" height="36" viewBox="0 0 36 36" fill="none">
  <rect x="0.5" y="0.5" width="35" height="35" rx="4.5" stroke="#A7A6A6"/>
  <path d="M9.00002 11.4198C9.00002 10.8426 9.20273 10.3664 9.60813 9.99124C10.0135 9.61605 10.5406 9.42847 11.1892 9.42847C11.8263 9.42847 12.3417 9.61316 12.7355 9.98258C13.1409 10.3635 13.3436 10.8599 13.3436 11.4718C13.3436 12.0259 13.1467 12.4876 12.7529 12.857C12.3475 13.238 11.8147 13.4285 11.1545 13.4285H11.1371C10.5 13.4285 9.98458 13.238 9.59075 12.857C9.19692 12.4761 9.00002 11.997 9.00002 11.4198ZM9.22589 26.5713V15.0042H13.083V26.5713H9.22589ZM15.2201 26.5713H19.0772V20.1124C19.0772 19.7084 19.1236 19.3967 19.2162 19.1774C19.3784 18.7849 19.6245 18.453 19.9547 18.1817C20.2848 17.9104 20.6989 17.7748 21.1969 17.7748C22.4942 17.7748 23.1429 18.6464 23.1429 20.3895V26.5713H27V19.9393C27 18.2308 26.5946 16.935 25.7838 16.0518C24.973 15.1687 23.9016 14.7272 22.5695 14.7272C21.0753 14.7272 19.9112 15.3679 19.0772 16.6492V16.6839H19.0599L19.0772 16.6492V15.0042H15.2201C15.2433 15.3736 15.2548 16.5222 15.2548 18.4501C15.2548 20.378 15.2433 23.085 15.2201 26.5713Z" fill="#4F4D4D"/>
</svg>