<svg xmlns="http://www.w3.org/2000/svg" width="123" height="24" viewBox="0 0 123 24" fill="none">
<path d="M34.6494 9.47417C36.3957 1.62035 36.7099 0.28334 36.8762 0.159379V0.150524C37.0425 0.0265631 37.2643 0 38.1513 0C38.8905 0 39.2601 0.0354175 39.3433 0.106252C39.408 0.168233 39.4542 0.318757 39.4542 0.442718C39.4542 0.56668 38.5487 4.7548 37.4399 9.74866C35.8506 16.9296 35.3978 18.8775 35.25 19.028C35.0837 19.2051 34.982 19.2228 33.9564 19.214C33.1895 19.214 32.8106 19.1786 32.7275 19.1077C32.6628 19.0457 32.6166 18.9129 32.6166 18.8155C32.6166 18.7181 33.5313 14.5123 34.6494 9.47417Z" fill="#FEFEFE"/>
<path d="M1.97679 12.0508C3.22418 6.45483 3.42746 5.61367 3.60302 5.472C3.79706 5.33033 4.27754 5.32147 17.7402 5.32147L17.8326 5.51627C17.9065 5.67565 17.6108 7.14547 16.4558 12.3164C15.1253 18.2931 14.9682 18.9306 14.7742 19.0723C14.5617 19.2228 14.1459 19.2317 7.69634 19.2228C0.960388 19.2228 0.831028 19.2228 0.646228 19.0457C0.526108 18.9306 0.479908 18.7978 0.507628 18.665C0.535348 18.5588 1.20063 15.5837 1.97679 12.0508Z" fill="#FEFEFE"/>
<path d="M113.106 0.620043C113.153 0.45181 113.264 0.239306 113.347 0.150762C113.476 0.0179465 113.642 0.000237755 114.603 0.0179465C115.592 0.0445096 115.721 0.0622183 115.823 0.221597C115.925 0.372121 115.832 0.876821 115.259 3.40917C114.89 5.06494 114.585 6.48164 114.585 6.55247C114.576 6.63216 114.788 6.49049 115.065 6.23371C115.37 5.95037 115.749 5.7113 116.1 5.57849C116.59 5.39255 116.839 5.35713 118.179 5.33057C119.168 5.304 119.879 5.33057 120.212 5.4014C120.489 5.46338 120.868 5.57849 121.044 5.66703C121.219 5.75558 121.506 5.93266 121.681 6.07433C121.857 6.216 122.097 6.52591 122.226 6.77383C122.43 7.14571 122.467 7.35822 122.494 8.14626C122.522 9.0494 122.494 9.21763 121.422 13.9901C120.434 18.3996 120.304 18.922 120.11 19.0637C119.926 19.1965 119.713 19.2231 118.872 19.2231C118.142 19.2142 117.8 19.1788 117.671 19.0903C117.489 18.9679 117.504 18.8973 118.544 14.2037L118.586 14.0167C119.427 10.2182 119.667 8.98742 119.621 8.69523C119.584 8.45616 119.473 8.2348 119.306 8.07542C119.149 7.9249 118.863 7.78323 118.549 7.71239C118.207 7.6327 117.68 7.60614 116.932 7.6327C115.971 7.65927 115.749 7.70354 115.287 7.90719C114.936 8.06657 114.668 8.27022 114.474 8.51814C114.317 8.73064 114.123 9.04055 114.049 9.20878C113.966 9.37701 113.439 11.626 112.866 14.2115C111.933 18.4173 111.804 18.922 111.6 19.0637C111.425 19.1965 111.212 19.2231 110.344 19.2142C109.475 19.2142 109.281 19.1877 109.161 19.0637C109.078 18.9751 109.041 18.8246 109.059 18.7272C109.087 18.6298 109.993 14.5834 111.064 9.74004C112.136 4.8967 113.051 0.788276 113.106 0.620043Z" fill="#FEFEFE"/>
<path fill-rule="evenodd" clip-rule="evenodd" d="M72.4866 2.16923L72.5143 2.39059C72.5328 2.51455 72.4219 3.17863 72.2648 3.87813C72.1077 4.56877 71.9784 5.15316 71.9784 5.17972C71.9784 5.20628 72.6252 5.22399 73.4106 5.22399C74.196 5.22399 74.9444 5.26826 75.0738 5.31253C75.2216 5.37451 75.3048 5.47191 75.3048 5.60473C75.3048 5.71098 75.2216 6.1537 75.12 6.59642C75.0183 7.03914 74.8705 7.45529 74.7966 7.52613C74.6764 7.63238 74.3253 7.6678 73.041 7.6855C71.4517 7.70321 71.424 7.70321 71.3778 7.90686C71.35 8.01312 70.9712 9.69545 70.5369 11.6434C69.9825 14.1403 69.7608 15.318 69.7792 15.6456C69.7977 16.0086 69.8624 16.1503 70.0842 16.3716C70.2412 16.531 70.5277 16.6815 70.7494 16.7347C70.9712 16.7789 71.5164 16.8232 71.9784 16.8232C72.5974 16.8232 72.8469 16.8586 72.9486 16.956C73.0225 17.0269 73.0687 17.1774 73.041 17.2836C73.0132 17.3987 72.9116 17.8238 72.8192 18.2399C72.6991 18.718 72.5697 19.0368 72.4681 19.1076C72.3572 19.1785 71.9322 19.2139 71.1468 19.2139C70.5092 19.2139 69.7608 19.1696 69.4836 19.1253C69.2064 19.0722 68.7444 18.9305 68.4672 18.8154C68.19 18.6915 67.8019 18.4436 67.6171 18.2665C67.4323 18.0805 67.1828 17.7264 67.0719 17.4873C66.9333 17.1862 66.8502 16.8144 66.8224 16.3362C66.7947 15.7076 66.8779 15.2206 67.6356 11.8205C68.0976 9.72201 68.4856 7.95114 68.4949 7.8803C68.5134 7.77405 68.347 7.73863 67.6171 7.70321C67.0719 7.67665 66.6746 7.61467 66.6007 7.54383C66.499 7.45529 66.5083 7.28706 66.6561 6.61413C66.7485 6.17141 66.8779 5.70213 66.9426 5.57817C67.0165 5.4365 67.1736 5.33024 67.3676 5.28597C67.5432 5.25055 67.9867 5.22399 68.347 5.22399C68.9569 5.22399 69.0308 5.20628 69.114 5.02034C69.1602 4.91409 69.308 4.30314 69.4466 3.67448C69.576 3.03696 69.7515 2.43487 69.8254 2.31976C69.9548 2.12496 69.9918 2.12496 72.4866 2.16923ZM23.3298 5.22399C24.0875 5.21514 24.2908 5.2417 24.4663 5.37451C24.6696 5.53389 24.6696 5.5516 24.4386 6.69382L24.8082 6.30422C25.0115 6.09172 25.4273 5.79952 25.7322 5.649C26.185 5.4365 26.4899 5.37451 27.3954 5.29483C28.1808 5.22399 28.7814 5.22399 29.4744 5.28597C30.0288 5.3391 30.6202 5.4542 30.8604 5.5516C31.0914 5.64015 31.4333 5.83494 31.6273 5.98547C31.8583 6.14484 32.0893 6.45475 32.2741 6.81778C32.5421 7.34018 32.5698 7.46415 32.5606 8.23448C32.5606 8.94282 32.4497 9.58034 31.8491 12.2189C31.461 13.9455 31.0545 15.6013 30.9528 15.8935C30.8419 16.1857 30.6294 16.6461 30.4631 16.9118C30.306 17.1774 29.9457 17.6201 29.6592 17.8857C29.3728 18.1602 28.8831 18.4967 28.5504 18.6561C28.2178 18.8154 27.6357 19.0102 27.2568 19.0899C26.7301 19.1962 26.2035 19.2227 25.0854 19.1962C23.7918 19.1696 23.5516 19.1431 23.145 18.966C22.8863 18.8509 22.5906 18.6738 22.4705 18.5675C22.3596 18.4613 22.2118 18.2576 22.1471 18.1248C22.0917 17.992 22.0177 17.8769 21.99 17.8769C21.9623 17.8857 21.7036 18.966 21.4079 20.2941C21.0568 21.8791 20.8165 22.7645 20.7149 22.8707C20.5763 23.0036 20.3915 23.0301 19.3751 23.0213C18.3495 23.0213 18.1924 23.0036 18.1185 22.8619C18.0538 22.7556 18.5712 20.2498 19.8741 14.3883C20.8812 9.81055 21.7498 5.91463 21.8052 5.72869C21.8699 5.48962 21.9623 5.38337 22.1471 5.32139C22.2949 5.27712 22.8216 5.23285 23.3298 5.22399ZM24.6789 8.20791C24.5125 8.34958 24.2538 8.65063 24.106 8.89855C23.9027 9.24387 23.7087 9.93451 23.2282 12.0419C22.8955 13.5294 22.6183 14.9815 22.6183 15.2737C22.6091 15.6456 22.6553 15.8935 22.7847 16.106C22.8771 16.2742 23.1265 16.4867 23.3298 16.593C23.6625 16.7612 23.8565 16.7789 25.224 16.7789C26.5361 16.7789 26.7948 16.7524 27.072 16.6107C27.2476 16.5222 27.5155 16.3451 27.6541 16.2123C27.802 16.0883 28.0053 15.8227 28.1069 15.6279C28.2085 15.4331 28.5874 13.981 28.9385 12.396C29.2989 10.8111 29.5853 9.297 29.5945 9.03137C29.6038 8.74803 29.5483 8.43813 29.4559 8.27875C29.382 8.12822 29.1603 7.94228 28.9755 7.85374C28.6983 7.72978 28.3933 7.70321 27.1829 7.70321C26.1573 7.71207 25.6213 7.74749 25.3626 7.83603C25.1593 7.90686 24.8544 8.0751 24.6789 8.20791ZM48.1669 5.23284C50.1166 5.23284 51.4656 5.25941 51.6042 5.31253C51.7705 5.37451 51.8352 5.47191 51.8352 5.64015C51.8352 5.78182 51.1976 8.77459 50.4122 12.3075C49.6268 15.8404 48.9523 18.7977 48.9061 18.8951C48.8692 18.9837 48.7583 19.0988 48.6751 19.1342C48.5827 19.1785 48.0191 19.2139 47.4277 19.2139C46.5499 19.2227 46.3189 19.1962 46.2265 19.0811C46.1526 19.0014 46.1249 18.8243 46.1618 18.6118C46.1896 18.4347 46.2358 18.1868 46.2635 18.0628C46.3097 17.868 46.2635 17.8946 45.8477 18.2576C45.5797 18.4967 45.1916 18.7535 44.9791 18.8509C44.7574 18.9394 44.36 19.0545 44.1013 19.1165C43.8334 19.1696 43.1034 19.2139 42.4843 19.2139C41.8006 19.2139 41.1168 19.1608 40.7749 19.0811C40.4515 19.0102 40.0357 18.8686 39.8509 18.78C39.6569 18.6826 39.3427 18.4524 39.1579 18.2665C38.9731 18.0805 38.7236 17.7264 38.6035 17.4873C38.4187 17.1066 38.391 16.9118 38.4002 16.1149C38.4095 15.3003 38.4926 14.7867 39.1117 12.0861C39.4906 10.3772 39.8971 8.76574 39.9988 8.50011C40.1004 8.23448 40.3499 7.77405 40.5439 7.48185C40.738 7.18966 41.126 6.7558 41.4032 6.51673C41.6804 6.28651 42.1332 5.97661 42.4104 5.8438C42.6876 5.71098 43.1034 5.5516 43.3344 5.48962C43.5654 5.42764 44.0182 5.34795 44.3508 5.31253C44.6834 5.27712 46.3928 5.2417 48.1669 5.23284ZM43.2605 8.26104C43.0849 8.42042 42.8724 8.68605 42.78 8.85428C42.6876 9.02251 42.318 10.4923 41.9576 12.1038C41.5973 13.7242 41.3016 15.2471 41.3016 15.4951C41.3016 15.7341 41.3663 16.0529 41.4402 16.2034C41.5141 16.3451 41.7174 16.5399 41.8837 16.6196C42.1055 16.7347 42.4751 16.7789 43.3806 16.8055C44.2769 16.8321 44.7204 16.8055 45.1362 16.6992C45.5058 16.6019 45.8292 16.4425 46.0972 16.2211C46.3097 16.044 46.5961 15.6899 46.7162 15.4508C46.8548 15.1674 47.2244 13.733 47.7234 11.484C48.1577 9.55378 48.5088 7.90686 48.5088 7.83603C48.5088 7.72092 48.2131 7.70321 46.3651 7.70321C44.6557 7.71207 44.1475 7.73863 43.8888 7.84488C43.7132 7.91572 43.4268 8.10166 43.2605 8.26104ZM55.6975 5.23284C56.1595 5.22399 56.6585 5.26826 56.8063 5.32139C57.0465 5.40993 57.0558 5.42764 56.9911 5.87036C56.9541 6.12714 56.8987 6.41048 56.8617 6.50787C56.8248 6.62298 56.9449 6.54329 57.2036 6.29537C57.4254 6.08286 57.8597 5.79067 58.1646 5.649C58.5711 5.46306 58.9685 5.37451 59.6707 5.29483C60.3545 5.22399 60.8811 5.22399 61.6111 5.28597C62.1563 5.3391 62.8308 5.46306 63.108 5.56046C63.3852 5.66671 63.7825 5.89692 63.9765 6.08286C64.1798 6.26881 64.4478 6.64069 64.5771 6.90632C64.7897 7.33133 64.8174 7.49956 64.8081 8.27875C64.7989 9.04908 64.6603 9.77514 63.7178 13.9898C63.1172 16.6461 62.5905 18.8863 62.5443 18.966C62.4981 19.0545 62.3688 19.1431 62.2579 19.1696C62.1378 19.1962 61.5741 19.205 60.992 19.1962C60.1789 19.1785 59.9202 19.1431 59.8463 19.0368C59.7816 18.9394 60.0495 17.5847 60.7887 14.2112C61.3616 11.6257 61.8513 9.35898 61.8791 9.16418C61.916 8.91626 61.8791 8.68605 61.7497 8.41156C61.6203 8.11937 61.4817 7.96884 61.2323 7.85374C60.9551 7.72978 60.6317 7.70321 59.4859 7.70321C58.2015 7.70321 58.026 7.72092 57.6102 7.90686C57.3607 8.02197 57.0096 8.26989 56.834 8.46469C56.6585 8.65063 56.4459 8.96939 56.3535 9.16418C56.2611 9.35898 55.7529 11.5106 55.2078 13.9455C54.6719 16.3805 54.1914 18.5232 54.1452 18.7003C54.0897 18.8863 53.9696 19.0722 53.868 19.1253C53.7663 19.1696 53.1935 19.2139 52.6021 19.2139C51.7243 19.2227 51.4933 19.1962 51.4009 19.0811C51.2993 18.9748 51.5395 17.7618 52.7222 12.3695C53.5169 8.75688 54.2191 5.70213 54.293 5.57817C54.3577 5.46306 54.5055 5.3391 54.6257 5.30368C54.7458 5.26826 55.2263 5.2417 55.6975 5.23284Z" fill="#FEFEFE"/>
<path fill-rule="evenodd" clip-rule="evenodd" d="M81.1727 2.1251C82.0597 2.11625 82.2999 2.14281 82.4016 2.25792C82.494 2.36417 82.457 2.63866 82.226 3.70118C82.0597 4.41839 81.9581 5.07361 81.995 5.1533C82.0412 5.29497 82.2075 5.31268 83.5751 5.31268C84.9333 5.31268 85.1089 5.33038 85.1828 5.47205C85.2382 5.56945 85.2105 5.90592 85.0812 6.46374C84.9795 6.92417 84.8224 7.37574 84.7393 7.46429C84.6099 7.60596 84.4159 7.62367 83.0669 7.61481C81.9303 7.60596 81.5145 7.63252 81.4314 7.72106C81.3667 7.78304 80.9601 9.44767 80.5166 11.4222C80.0731 13.3967 79.7035 15.2296 79.7035 15.4952C79.6943 15.8494 79.7497 16.053 79.8883 16.2478C79.9992 16.3983 80.2579 16.5843 80.4612 16.6728C80.7476 16.7791 81.0987 16.8234 81.801 16.8234C82.5587 16.8145 82.7712 16.8411 82.8821 16.965C83.0022 17.089 83.0022 17.2041 82.8081 18.0098C82.6603 18.6739 82.5494 18.9484 82.3923 19.0635C82.226 19.1963 82.0135 19.2229 81.1727 19.214C80.6183 19.214 79.8883 19.1698 79.5557 19.1166C79.223 19.0724 78.7241 18.9307 78.4469 18.8067C78.1697 18.6828 77.8001 18.4614 77.6337 18.302C77.4582 18.1427 77.2087 17.8239 77.0793 17.576C76.8576 17.1775 76.8299 17.0359 76.8299 16.2035C76.8299 15.3624 76.913 14.9108 77.6522 11.5993C78.105 9.58048 78.4469 7.85388 78.4191 7.76534C78.3637 7.64137 78.2251 7.61481 77.4767 7.61481C76.7282 7.61481 76.5896 7.58825 76.5342 7.45543C76.5065 7.37574 76.5711 6.90646 76.682 6.41947C76.8021 5.85279 76.9407 5.48976 77.0424 5.41893C77.144 5.34809 77.4951 5.31268 78.0311 5.31268C78.5947 5.32153 78.8996 5.28611 78.9735 5.20642C79.0382 5.14444 79.2415 4.48037 79.4263 3.72774C79.6203 2.93085 79.8236 2.31105 79.916 2.24021C80.0177 2.16052 80.3873 2.1251 81.1727 2.1251ZM92.9536 5.32153C94.0994 5.32153 95.2082 5.35695 95.43 5.40122C95.6425 5.45435 95.9936 5.56945 96.2154 5.66685C96.4279 5.75539 96.7698 5.98561 96.9638 6.17155C97.1671 6.35749 97.435 6.72937 97.5644 6.99501C97.7677 7.41116 97.8046 7.5971 97.7954 8.32316C97.7954 8.98724 97.703 9.58048 97.3519 11.1123C97.1116 12.1837 96.8529 13.1488 96.6496 13.4587H92.6025C89.4055 13.4498 88.5462 13.4764 88.463 13.5649C88.4076 13.6269 88.2874 13.9988 88.195 14.3884C88.1026 14.778 88.038 15.3181 88.038 15.5837C88.038 15.9202 88.0934 16.1416 88.2135 16.2921C88.3152 16.4161 88.5369 16.5843 88.7125 16.664C88.9897 16.8056 89.3593 16.8234 92.2329 16.8234C94.1918 16.8234 95.5224 16.8588 95.6332 16.9119C95.7626 16.9739 95.818 17.089 95.818 17.2838C95.8088 17.4432 95.7349 17.8947 95.6332 18.2843C95.5316 18.6739 95.4115 19.0281 95.356 19.0812C95.2914 19.1343 93.97 19.1786 91.9095 19.1963C89.7936 19.214 88.3244 19.1875 87.9178 19.1255C87.5575 19.0724 87.0862 18.9484 86.8552 18.8599C86.6242 18.7625 86.2269 18.4791 85.9682 18.2223C85.5986 17.8593 85.46 17.6291 85.3307 17.2218C85.2013 16.8056 85.1828 16.5046 85.2198 15.8494C85.2567 15.2915 85.5062 13.9722 85.959 11.9535C86.3378 10.2711 86.7444 8.67734 86.8645 8.4117C86.9754 8.14607 87.2064 7.72106 87.3634 7.482C87.5298 7.23407 87.8809 6.83563 88.1581 6.5877C88.4353 6.33978 88.9158 6.01217 89.2299 5.86165C89.5533 5.70227 90.0523 5.52518 90.3387 5.45435C90.7176 5.3658 91.4845 5.32153 92.9536 5.32153ZM90.2463 8.01326C90.0615 8.13722 89.8028 8.40285 89.6734 8.6065C89.5441 8.82786 89.3316 9.49194 89.1652 10.1826C89.0082 10.8378 88.9065 11.431 88.9342 11.4842C88.9712 11.5727 89.5995 11.5993 91.6323 11.5993C93.7021 11.6081 94.3119 11.5816 94.3951 11.493C94.4505 11.431 94.6076 10.8378 94.7554 10.1826C94.9218 9.40339 94.9957 8.87213 94.9495 8.65077C94.9218 8.47369 94.7924 8.20805 94.663 8.05753C94.4967 7.86273 94.3027 7.76534 93.97 7.70336C93.7113 7.65908 93.0368 7.61481 92.4639 7.62367C91.9003 7.63252 91.2442 7.66794 91.0132 7.71221C90.7822 7.75648 90.4404 7.8893 90.2463 8.01326ZM107.026 5.32153C109.558 5.31268 109.78 5.32153 109.835 5.4632C109.863 5.55174 109.817 5.97675 109.724 6.41947C109.641 6.85334 109.502 7.30491 109.438 7.41116C109.308 7.61481 109.29 7.61481 106.888 7.63252C104.651 7.65908 104.42 7.67679 104.042 7.84502C103.811 7.94242 103.487 8.17264 103.33 8.34972C103.164 8.52681 102.97 8.81015 102.896 8.96068C102.831 9.12005 102.48 10.5899 102.11 12.2191C101.75 13.8483 101.454 15.3358 101.454 15.5218C101.454 15.6988 101.528 15.991 101.621 16.1681C101.722 16.3718 101.907 16.54 102.147 16.6551C102.48 16.8056 102.748 16.8234 104.762 16.8234C105.991 16.8234 107.063 16.8411 107.137 16.8676C107.22 16.8942 107.276 17.0181 107.276 17.2041C107.276 17.3546 107.202 17.815 107.109 18.2135C107.026 18.6119 106.897 18.9838 106.832 19.0547C106.74 19.1432 106.176 19.1786 104.43 19.1963C103.155 19.214 101.833 19.1786 101.436 19.1343C101.039 19.0812 100.503 18.9484 100.235 18.8421C99.9483 18.7182 99.5972 18.4614 99.3385 18.1958C99.0705 17.9124 98.858 17.5671 98.7471 17.2661C98.6547 16.9739 98.59 16.5134 98.59 16.1327C98.59 15.6811 98.7933 14.5832 99.2923 12.3342C99.6804 10.5899 100.059 8.98724 100.133 8.76588C100.216 8.54452 100.401 8.12836 100.558 7.83617C100.715 7.53512 101.094 7.05699 101.445 6.71167C101.87 6.30437 102.249 6.03873 102.702 5.83508C103.053 5.6757 103.561 5.48976 103.811 5.43664C104.116 5.3658 105.215 5.32153 107.026 5.32153Z" fill="#FEFEFE"/>
<path d="M10.4774 8.27875C10.5883 7.83603 10.7084 7.42873 10.7454 7.36675C10.7916 7.29592 11.0965 7.2605 11.6878 7.2605C12.5379 7.2605 12.5656 7.26935 12.5656 7.45529C12.5564 7.5704 12.501 7.91572 12.427 8.23448C12.3531 8.55324 12.2977 8.88085 12.2884 8.96054C12.2884 9.10221 12.3993 9.11992 13.9978 9.16419L13.9701 9.47409C13.9609 9.64232 13.8962 9.97879 13.7206 10.6694L11.8726 10.758L11.6047 11.9533C11.4476 12.6705 11.3644 13.2461 11.3922 13.3877C11.4476 13.5825 11.54 13.6534 11.808 13.7242C11.9928 13.7685 12.3254 13.8127 12.5472 13.8127C12.8983 13.8127 12.9352 13.8304 12.9352 14.0341C12.9352 14.1581 12.889 14.468 12.8336 14.7159C12.7782 14.9727 12.6858 15.2383 12.6211 15.3091C12.5379 15.4065 12.3162 15.4242 11.5954 15.38C11.0595 15.3534 10.5144 15.2737 10.3018 15.194C9.96921 15.0612 9.89529 15.0612 9.60885 15.1763C9.43329 15.2471 9.03597 15.3357 8.73105 15.3622C8.42613 15.3977 7.92717 15.3977 7.62225 15.3622C7.16949 15.3091 7.01241 15.2471 6.74445 14.9904C6.56889 14.831 6.41181 14.707 6.41181 14.7159C6.40257 14.7336 6.28245 15.256 6.15309 15.8935C5.98677 16.6609 5.85125 17.0829 5.74653 17.1597C5.65413 17.2217 5.31225 17.2659 4.89646 17.2659C4.51762 17.2659 4.13878 17.2305 4.06486 17.1774C3.94474 17.1066 4.04638 16.5664 4.79482 13.2195C5.26605 11.0856 5.69109 9.28815 5.72805 9.22617C5.77425 9.15533 6.06993 9.11992 7.57605 9.11992L7.55757 9.42982C7.53909 9.59805 7.54833 9.73972 7.57605 9.73972C7.60377 9.74858 7.66845 9.69545 7.72389 9.63347C7.77933 9.57149 7.99185 9.43867 8.18589 9.34127C8.43537 9.22617 8.81421 9.15533 10.2926 9.07564L10.4774 8.27875Z" fill="#253237"/>
<path d="M7.21671 11.4488C7.31835 11.2363 7.52163 10.9884 7.69719 10.891C7.92819 10.7581 8.15919 10.7139 8.71359 10.7139C9.30495 10.7139 9.45279 10.7404 9.60987 10.891C9.71151 10.9884 9.79467 11.1123 9.79467 11.1566C9.79467 11.2009 9.71151 11.6347 9.60987 12.104C9.49899 12.5821 9.36963 13.0868 9.30495 13.2285C9.24027 13.3702 9.11091 13.5384 9.00927 13.6004C8.90763 13.6712 8.57499 13.7421 8.27007 13.7775C7.90971 13.8129 7.58631 13.7863 7.34607 13.7066C7.08735 13.627 6.958 13.5207 6.88408 13.3436C6.8194 13.1665 6.82864 12.9098 6.9118 12.4582C6.97648 12.104 7.11507 11.6524 7.21671 11.4488Z" fill="#FEFEFE"/>
</svg>