<svg xmlns="http://www.w3.org/2000/svg" width="122" height="24" viewBox="0 0 122 24" fill="none">
  <path d="M34.1496 9.9627C35.8959 2.10887 36.2101 0.771865 36.3764 0.647904V0.63905C36.5427 0.515089 36.7645 0.488525 37.6515 0.488525C38.3907 0.488525 38.7603 0.523943 38.8435 0.594778C38.9081 0.656758 38.9543 0.807283 38.9543 0.931244C38.9543 1.0552 38.0488 5.24332 36.94 10.2372C35.3508 17.4181 34.898 19.366 34.7502 19.5166C34.5838 19.6936 34.4822 19.7114 33.4566 19.7025C32.6896 19.7025 32.3108 19.6671 32.2276 19.5963C32.163 19.5343 32.1168 19.4015 32.1168 19.3041C32.1168 19.2067 33.0315 15.0008 34.1496 9.9627Z" fill="#253237"/>
  <path d="M1.47695 12.5393C2.72435 6.94336 2.92763 6.10219 3.10319 5.96052C3.29723 5.81885 3.77771 5.81 17.2404 5.81L17.3328 6.0048C17.4067 6.16418 17.111 7.634 15.956 12.805C14.6255 18.7816 14.4684 19.4192 14.2743 19.5608C14.0618 19.7114 13.646 19.7202 7.19651 19.7114C0.460556 19.7114 0.331196 19.7114 0.146396 19.5343C0.0262762 19.4192 -0.0199237 19.2863 0.00779624 19.1535C0.0355162 19.0473 0.700795 16.0722 1.47695 12.5393Z" fill="#253237"/>
  <path d="M112.607 1.10857C112.653 0.940336 112.764 0.727831 112.847 0.639287C112.976 0.506472 113.143 0.488763 114.104 0.506472C115.092 0.533035 115.222 0.550744 115.323 0.710122C115.425 0.860647 115.332 1.36535 114.76 3.8977C114.39 5.55346 114.085 6.97016 114.085 7.041C114.076 7.12069 114.288 6.97902 114.566 6.72224C114.87 6.4389 115.249 6.19983 115.6 6.06701C116.09 5.88107 116.34 5.84566 117.679 5.81909C118.668 5.79253 119.38 5.81909 119.712 5.88993C119.989 5.95191 120.368 6.06701 120.544 6.15556C120.719 6.2441 121.006 6.42119 121.181 6.56286C121.357 6.70453 121.597 7.01443 121.727 7.26235C121.93 7.63424 121.967 7.84674 121.994 8.63478C122.022 9.53793 121.994 9.70616 120.923 14.4787C119.934 18.8881 119.805 19.4105 119.611 19.5522C119.426 19.685 119.213 19.7116 118.372 19.7116C117.642 19.7027 117.301 19.6673 117.171 19.5788C116.989 19.4564 117.004 19.3858 118.045 14.6923L118.086 14.5052C118.927 10.7067 119.167 9.47595 119.121 9.18375C119.084 8.94468 118.973 8.72333 118.807 8.56395C118.65 8.41342 118.363 8.27175 118.049 8.20092C117.707 8.12123 117.18 8.09467 116.432 8.12123C115.471 8.14779 115.249 8.19206 114.787 8.39571C114.436 8.55509 114.168 8.75874 113.974 9.00667C113.817 9.21917 113.623 9.52907 113.549 9.69731C113.466 9.86554 112.939 12.1145 112.366 14.7C111.433 18.9058 111.304 19.4105 111.101 19.5522C110.925 19.685 110.712 19.7116 109.844 19.7027C108.975 19.7027 108.781 19.6762 108.661 19.5522C108.578 19.4637 108.541 19.3132 108.56 19.2158C108.587 19.1184 109.493 15.0719 110.565 10.2286C111.636 5.38523 112.551 1.2768 112.607 1.10857Z" fill="#253237"/>
  <path fill-rule="evenodd" clip-rule="evenodd" d="M71.9867 2.65776L72.0145 2.87912C72.0329 3.00308 71.9221 3.66716 71.765 4.36665C71.6079 5.05729 71.4785 5.64168 71.4785 5.66824C71.4785 5.69481 72.1253 5.71252 72.9107 5.71252C73.6961 5.71252 74.4446 5.75679 74.5739 5.80106C74.7218 5.86304 74.8049 5.96044 74.8049 6.09325C74.8049 6.19951 74.7218 6.64222 74.6201 7.08494C74.5185 7.52766 74.3706 7.94382 74.2967 8.01465C74.1766 8.1209 73.8255 8.15632 72.5411 8.17403C70.9519 8.19174 70.9241 8.19174 70.8779 8.39539C70.8502 8.50164 70.4714 10.184 70.0371 12.1319C69.4827 14.6289 69.2609 15.8065 69.2794 16.1341C69.2979 16.4971 69.3626 16.6388 69.5843 16.8602C69.7414 17.0195 70.0279 17.1701 70.2496 17.2232C70.4714 17.2675 71.0165 17.3117 71.4785 17.3117C72.0976 17.3117 72.3471 17.3472 72.4487 17.4446C72.5226 17.5154 72.5688 17.6659 72.5411 17.7722C72.5134 17.8873 72.4118 18.3123 72.3194 18.7284C72.1993 19.2066 72.0699 19.5253 71.9682 19.5962C71.8574 19.667 71.4323 19.7024 70.6469 19.7024C70.0094 19.7024 69.2609 19.6581 68.9837 19.6139C68.7065 19.5607 68.2445 19.4191 67.9673 19.304C67.6901 19.18 67.3021 18.9321 67.1173 18.755C66.9325 18.5691 66.683 18.2149 66.5721 17.9758C66.4335 17.6748 66.3503 17.3029 66.3226 16.8247C66.2949 16.1961 66.3781 15.7091 67.1357 12.309C67.5977 10.2105 67.9858 8.43966 67.9951 8.36883C68.0135 8.26257 67.8472 8.22716 67.1173 8.19174C66.5721 8.16518 66.1748 8.10319 66.1009 8.03236C65.9992 7.94382 66.0085 7.77558 66.1563 7.10265C66.2487 6.65993 66.3781 6.19065 66.4427 6.06669C66.5167 5.92502 66.6737 5.81877 66.8678 5.7745C67.0433 5.73908 67.4869 5.71252 67.8472 5.71252C68.4571 5.71252 68.531 5.69481 68.6141 5.50887C68.6603 5.40261 68.8082 4.79166 68.9468 4.163C69.0761 3.52549 69.2517 2.92339 69.3256 2.80828C69.455 2.61349 69.4919 2.61349 71.9867 2.65776ZM22.83 5.71252C23.5877 5.70366 23.7909 5.73022 23.9665 5.86304C24.1698 6.02242 24.1698 6.04013 23.9388 7.18234L24.3084 6.79275C24.5117 6.58024 24.9275 6.28805 25.2324 6.13753C25.6851 5.92502 25.9901 5.86304 26.8956 5.78335C27.681 5.71252 28.2816 5.71252 28.9746 5.7745C29.529 5.82762 30.1203 5.94273 30.3606 6.04013C30.5916 6.12867 30.9335 6.32347 31.1275 6.47399C31.3585 6.63337 31.5895 6.94327 31.7743 7.3063C32.0423 7.82871 32.07 7.95267 32.0607 8.723C32.0607 9.43135 31.9499 10.0689 31.3493 12.7075C30.9612 14.4341 30.5546 16.0898 30.453 16.382C30.3421 16.6742 30.1296 17.1346 29.9633 17.4003C29.8062 17.6659 29.4458 18.1086 29.1594 18.3743C28.8729 18.6487 28.3832 18.9852 28.0506 19.1446C27.7179 19.304 27.1358 19.4988 26.757 19.5785C26.2303 19.6847 25.7036 19.7113 24.5856 19.6847C23.292 19.6581 23.0518 19.6316 22.6452 19.4545C22.3865 19.3394 22.0908 19.1623 21.9707 19.056C21.8598 18.9498 21.712 18.7461 21.6473 18.6133C21.5918 18.4805 21.5179 18.3654 21.4902 18.3654C21.4625 18.3743 21.2038 19.4545 20.9081 20.7826C20.557 22.3676 20.3167 23.253 20.2151 23.3593C20.0765 23.4921 19.8917 23.5186 18.8753 23.5098C17.8496 23.5098 17.6926 23.4921 17.6186 23.3504C17.554 23.2442 18.0714 20.7384 19.3742 14.8768C20.3814 10.2991 21.25 6.40316 21.3054 6.21721C21.3701 5.97815 21.4625 5.87189 21.6473 5.80991C21.7951 5.76564 22.3218 5.72137 22.83 5.71252ZM24.179 8.69644C24.0127 8.83811 23.754 9.13916 23.6061 9.38708C23.4029 9.7324 23.2088 10.423 22.7284 12.5304C22.3957 14.0179 22.1185 15.47 22.1185 15.7622C22.1093 16.1341 22.1555 16.382 22.2848 16.5945C22.3772 16.7628 22.6267 16.9753 22.83 17.0815C23.1626 17.2498 23.3567 17.2675 24.7242 17.2675C26.0363 17.2675 26.295 17.2409 26.5722 17.0992C26.7477 17.0107 27.0157 16.8336 27.1543 16.7008C27.3021 16.5768 27.5054 16.3112 27.6071 16.1164C27.7087 15.9216 28.0875 14.4695 28.4387 12.8846C28.799 11.2996 29.0855 9.78552 29.0947 9.51989C29.1039 9.23655 29.0485 8.92665 28.9561 8.76727C28.8822 8.61675 28.6604 8.43081 28.4756 8.34226C28.1984 8.2183 27.8935 8.19174 26.6831 8.19174C25.6574 8.20059 25.1215 8.23601 24.8628 8.32455C24.6595 8.39539 24.3546 8.56362 24.179 8.69644ZM47.6671 5.72137C49.6167 5.72137 50.9658 5.74793 51.1044 5.80106C51.2707 5.86304 51.3354 5.96044 51.3354 6.12867C51.3354 6.27034 50.6978 9.26312 49.9124 12.796C49.127 16.3289 48.4525 19.2863 48.4063 19.3837C48.3693 19.4722 48.2584 19.5873 48.1753 19.6227C48.0829 19.667 47.5192 19.7024 46.9279 19.7024C46.0501 19.7113 45.8191 19.6847 45.7267 19.5696C45.6528 19.4899 45.625 19.3128 45.662 19.1003C45.6897 18.9232 45.7359 18.6753 45.7636 18.5513C45.8098 18.3566 45.7636 18.3831 45.3478 18.7461C45.0799 18.9852 44.6918 19.242 44.4793 19.3394C44.2575 19.4279 43.8602 19.543 43.6015 19.605C43.3335 19.6581 42.6036 19.7024 41.9845 19.7024C41.3007 19.7024 40.617 19.6493 40.2751 19.5696C39.9517 19.4988 39.5359 19.3571 39.3511 19.2685C39.1571 19.1712 38.8429 18.9409 38.6581 18.755C38.4733 18.5691 38.2238 18.2149 38.1037 17.9758C37.9189 17.5951 37.8912 17.4003 37.9004 16.6034C37.9097 15.7888 37.9928 15.2752 38.6119 12.5746C38.9907 10.8658 39.3973 9.25426 39.4989 8.98863C39.6006 8.723 39.85 8.26257 40.0441 7.97038C40.2381 7.67819 40.6262 7.24432 40.9034 7.00525C41.1806 6.77504 41.6334 6.46514 41.9106 6.33232C42.1878 6.19951 42.6036 6.04013 42.8346 5.97815C43.0656 5.91617 43.5183 5.83648 43.851 5.80106C44.1836 5.76564 45.893 5.73022 47.6671 5.72137ZM42.7606 8.74956C42.5851 8.90894 42.3726 9.17457 42.2802 9.34281C42.1878 9.51104 41.8182 10.9809 41.4578 12.5924C41.0974 14.2127 40.8018 15.7357 40.8018 15.9836C40.8018 16.2226 40.8664 16.5414 40.9404 16.6919C41.0143 16.8336 41.2176 17.0284 41.3839 17.1081C41.6056 17.2232 41.9752 17.2675 42.8808 17.294C43.777 17.3206 44.2206 17.294 44.6364 17.1878C45.006 17.0904 45.3294 16.931 45.5973 16.7096C45.8098 16.5326 46.0963 16.1784 46.2164 15.9393C46.355 15.656 46.7246 14.2216 47.2236 11.9726C47.6578 10.0423 48.009 8.39539 48.009 8.32455C48.009 8.20945 47.7133 8.19174 45.8653 8.19174C44.1559 8.20059 43.6477 8.22716 43.389 8.33341C43.2134 8.40424 42.927 8.59018 42.7606 8.74956ZM55.1977 5.72137C55.6597 5.71252 56.1586 5.75679 56.3065 5.80991C56.5467 5.89846 56.556 5.91617 56.4913 6.35888C56.4543 6.61566 56.3989 6.899 56.3619 6.9964C56.325 7.11151 56.4451 7.03182 56.7038 6.78389C56.9255 6.57139 57.3598 6.2792 57.6647 6.13753C58.0713 5.95158 58.4686 5.86304 59.1709 5.78335C59.8546 5.71252 60.3813 5.71252 61.1113 5.7745C61.6564 5.82762 62.3309 5.95158 62.6081 6.04898C62.8853 6.15523 63.2827 6.38545 63.4767 6.57139C63.68 6.75733 63.9479 7.12921 64.0773 7.39485C64.2898 7.81986 64.3175 7.98809 64.3083 8.76727C64.2991 9.5376 64.1605 10.2637 63.218 14.4783C62.6174 17.1346 62.0907 19.3748 62.0445 19.4545C61.9983 19.543 61.8689 19.6316 61.7581 19.6581C61.6379 19.6847 61.0743 19.6936 60.4922 19.6847C59.6791 19.667 59.4203 19.6316 59.3464 19.5253C59.2817 19.4279 59.5497 18.0732 60.2889 14.6997C60.8618 12.1142 61.3515 9.84751 61.3792 9.65271C61.4162 9.40479 61.3792 9.17457 61.2499 8.90009C61.1205 8.60789 60.9819 8.45737 60.7324 8.34226C60.4552 8.2183 60.1318 8.19174 58.9861 8.19174C57.7017 8.19174 57.5261 8.20945 57.1103 8.39539C56.8609 8.5105 56.5098 8.75842 56.3342 8.95321C56.1586 9.13916 55.9461 9.45791 55.8537 9.65271C55.7613 9.84751 55.2531 11.9991 54.708 14.4341C54.172 16.869 53.6916 19.0118 53.6454 19.1889C53.5899 19.3748 53.4698 19.5607 53.3682 19.6139C53.2665 19.6581 52.6936 19.7024 52.1023 19.7024C51.2245 19.7113 50.9935 19.6847 50.9011 19.5696C50.7994 19.4633 51.0397 18.2503 52.2224 12.858C53.017 9.24541 53.7193 6.19065 53.7932 6.06669C53.8579 5.95158 54.0057 5.82762 54.1258 5.79221C54.246 5.75679 54.7264 5.73022 55.1977 5.72137Z" fill="#253237"/>
  <path fill-rule="evenodd" clip-rule="evenodd" d="M80.6728 2.61363C81.5599 2.60477 81.8001 2.63134 81.9017 2.74644C81.9941 2.8527 81.9572 3.12718 81.7262 4.18971C81.5599 4.90691 81.4582 5.56213 81.4952 5.64182C81.5414 5.78349 81.7077 5.8012 83.0752 5.8012C84.4335 5.8012 84.6091 5.81891 84.683 5.96058C84.7384 6.05798 84.7107 6.39444 84.5813 6.95227C84.4797 7.4127 84.3226 7.86427 84.2395 7.95281C84.1101 8.09448 83.9161 8.11219 82.567 8.10334C81.4305 8.09448 81.0147 8.12105 80.9316 8.20959C80.8669 8.27157 80.4603 9.93619 80.0168 11.9107C79.5733 13.8852 79.2037 15.7181 79.2037 15.9837C79.1944 16.3379 79.2499 16.5415 79.3885 16.7363C79.4994 16.8869 79.7581 17.0728 79.9614 17.1614C80.2478 17.2676 80.5989 17.3119 81.3011 17.3119C82.0588 17.303 82.2714 17.3296 82.3822 17.4535C82.5024 17.5775 82.5023 17.6926 82.3083 18.4984C82.1605 19.1624 82.0496 19.4369 81.8925 19.552C81.7262 19.6848 81.5137 19.7114 80.6728 19.7026C80.1184 19.7026 79.3885 19.6583 79.0558 19.6052C78.7232 19.5609 78.2242 19.4192 77.947 19.2953C77.6698 19.1713 77.3002 18.9499 77.1339 18.7906C76.9584 18.6312 76.7089 18.3124 76.5795 18.0645C76.3578 17.6661 76.33 17.5244 76.33 16.6921C76.33 15.8509 76.4132 15.3993 77.1524 12.0878C77.6052 10.069 77.947 8.3424 77.9193 8.25386C77.8639 8.1299 77.7253 8.10334 76.9768 8.10334C76.2284 8.10334 76.0898 8.07677 76.0344 7.94396C76.0066 7.86427 76.0713 7.39499 76.1822 6.908C76.3023 6.34132 76.4409 5.97829 76.5426 5.90745C76.6442 5.83662 76.9953 5.8012 77.5312 5.8012C78.0949 5.81006 78.3998 5.77464 78.4737 5.69495C78.5384 5.63297 78.7417 4.96889 78.9265 4.21627C79.1205 3.41938 79.3238 2.79957 79.4162 2.72874C79.5178 2.64905 79.8874 2.61363 80.6728 2.61363ZM92.4538 5.81006C93.5996 5.81006 94.7084 5.84547 94.9301 5.88975C95.1427 5.94287 95.4938 6.05798 95.7155 6.15538C95.9281 6.24392 96.2699 6.47413 96.464 6.66007C96.6673 6.84602 96.9352 7.2179 97.0646 7.48353C97.2679 7.89969 97.3048 8.08563 97.2956 8.81169C97.2956 9.47576 97.2032 10.069 96.8521 11.6008C96.6118 12.6722 96.3531 13.6373 96.1498 13.9472H92.1027C88.9057 13.9384 88.0463 13.9649 87.9632 14.0535C87.9077 14.1155 87.7876 14.4873 87.6952 14.8769C87.6028 15.2665 87.5381 15.8066 87.5381 16.0723C87.5381 16.4087 87.5936 16.6301 87.7137 16.7806C87.8153 16.9046 88.0371 17.0728 88.2127 17.1525C88.4899 17.2942 88.8595 17.3119 91.7331 17.3119C93.692 17.3119 95.0225 17.3473 95.1334 17.4004C95.2628 17.4624 95.3182 17.5775 95.3182 17.7723C95.309 17.9317 95.2351 18.3833 95.1334 18.7728C95.0318 19.1624 94.9117 19.5166 94.8562 19.5697C94.7915 19.6229 93.4702 19.6671 91.4097 19.6848C89.2937 19.7026 87.8246 19.676 87.418 19.614C87.0577 19.5609 86.5864 19.4369 86.3554 19.3484C86.1244 19.251 85.7271 18.9676 85.4684 18.7109C85.0988 18.3478 84.9602 18.1176 84.8308 17.7103C84.7015 17.2942 84.683 16.9931 84.7199 16.3379C84.7569 15.7801 85.0064 14.4608 85.4591 12.442C85.838 10.7596 86.2445 9.16586 86.3647 8.90023C86.4755 8.6346 86.7065 8.20959 86.8636 7.97052C87.0299 7.7226 87.3811 7.32415 87.6583 7.07623C87.9355 6.82831 88.4159 6.5007 88.7301 6.35017C89.0535 6.19079 89.5525 6.01371 89.8389 5.94287C90.2177 5.85433 90.9847 5.81006 92.4538 5.81006ZM89.7465 8.50178C89.5617 8.62574 89.303 8.89138 89.1736 9.09503C89.0443 9.31639 88.8317 9.98046 88.6654 10.6711C88.5083 11.3263 88.4067 11.9196 88.4344 11.9727C88.4714 12.0612 89.0997 12.0878 91.1325 12.0878C93.2023 12.0967 93.8121 12.0701 93.8953 11.9815C93.9507 11.9196 94.1078 11.3263 94.2556 10.6711C94.4219 9.89192 94.4959 9.36066 94.4497 9.1393C94.4219 8.96221 94.2926 8.69658 94.1632 8.54605C93.9969 8.35126 93.8029 8.25386 93.4702 8.19188C93.2115 8.14761 92.537 8.10334 91.9641 8.11219C91.4005 8.12105 90.7444 8.15646 90.5134 8.20073C90.2824 8.24501 89.9405 8.37782 89.7465 8.50178ZM106.526 5.81006C109.058 5.8012 109.28 5.81006 109.335 5.95173C109.363 6.04027 109.317 6.46528 109.224 6.908C109.141 7.34186 109.003 7.79343 108.938 7.89969C108.809 8.10334 108.79 8.10334 106.388 8.12105C104.152 8.14761 103.921 8.16532 103.542 8.33355C103.311 8.43095 102.987 8.66116 102.83 8.83825C102.664 9.01534 102.47 9.29868 102.396 9.4492C102.331 9.60858 101.98 11.0784 101.611 12.7076C101.25 14.3368 100.955 15.8243 100.955 16.0103C100.955 16.1874 101.029 16.4796 101.121 16.6567C101.223 16.8603 101.407 17.0285 101.648 17.1436C101.98 17.2942 102.248 17.3119 104.263 17.3119C105.491 17.3119 106.563 17.3296 106.637 17.3561C106.72 17.3827 106.776 17.5067 106.776 17.6926C106.776 17.8431 106.702 18.3036 106.609 18.702C106.526 19.1005 106.397 19.4723 106.332 19.5432C106.24 19.6317 105.676 19.6671 103.93 19.6848C102.655 19.7026 101.333 19.6671 100.936 19.6229C100.539 19.5697 100.003 19.4369 99.7349 19.3307C99.4485 19.2067 99.0974 18.9499 98.8386 18.6843C98.5707 18.401 98.3582 18.0556 98.2473 17.7546C98.1549 17.4624 98.0902 17.002 98.0902 16.6212C98.0902 16.1697 98.2935 15.0717 98.7924 12.8227C99.1805 11.0784 99.5594 9.47576 99.6333 9.2544C99.7164 9.03304 99.9012 8.61689 100.058 8.3247C100.215 8.02365 100.594 7.54551 100.945 7.20019C101.37 6.79289 101.749 6.52726 102.202 6.32361C102.553 6.16423 103.061 5.97829 103.311 5.92516C103.616 5.85433 104.715 5.81006 106.526 5.81006Z" fill="#253237"/>
  <path d="M9.97758 8.76728C10.0885 8.32456 10.2086 7.91726 10.2455 7.85528C10.2917 7.78444 10.5967 7.74902 11.188 7.74902C12.0381 7.74902 12.0658 7.75788 12.0658 7.94382C12.0566 8.05893 12.0011 8.40425 11.9272 8.723C11.8533 9.04176 11.7979 9.36937 11.7886 9.44906C11.7886 9.59073 11.8995 9.60844 13.498 9.65271L13.4703 9.96262C13.4611 10.1308 13.3964 10.4673 13.2208 11.158L11.3728 11.2465L11.1049 12.4418C10.9478 13.159 10.8646 13.7346 10.8923 13.8762C10.9478 14.071 11.0402 14.1419 11.3081 14.2127C11.4929 14.257 11.8256 14.3013 12.0473 14.3013C12.3985 14.3013 12.4354 14.319 12.4354 14.5226C12.4354 14.6466 12.3892 14.9565 12.3338 15.2044C12.2783 15.4612 12.1859 15.7268 12.1213 15.7976C12.0381 15.895 11.8163 15.9128 11.0956 15.8685C10.5597 15.8419 10.0145 15.7622 9.80202 15.6825C9.46938 15.5497 9.39546 15.5497 9.10902 15.6648C8.93346 15.7357 8.53614 15.8242 8.23122 15.8508C7.9263 15.8862 7.42734 15.8862 7.12242 15.8508C6.66966 15.7976 6.51258 15.7357 6.24462 15.4789C6.06906 15.3195 5.91198 15.1955 5.91198 15.2044C5.90274 15.2221 5.78262 15.7445 5.65326 16.382C5.48694 17.1494 5.35142 17.5715 5.2467 17.6482C5.1543 17.7102 4.81242 17.7545 4.39662 17.7545C4.01778 17.7545 3.63894 17.719 3.56502 17.6659C3.4449 17.5951 3.54654 17.055 4.29498 13.708C4.76622 11.5741 5.19126 9.77667 5.22822 9.71469C5.27442 9.64386 5.5701 9.60844 7.07622 9.60844L7.05774 9.91834C7.03926 10.0866 7.0485 10.2282 7.07622 10.2282C7.10394 10.2371 7.16862 10.184 7.22406 10.122C7.2795 10.06 7.49202 9.9272 7.68606 9.8298C7.93554 9.71469 8.31438 9.64386 9.79278 9.56417L9.97758 8.76728Z" fill="#FEFEFE"/>
  <path d="M6.71688 11.9373C6.81852 11.7248 7.0218 11.4769 7.19736 11.3795C7.42836 11.2467 7.65936 11.2024 8.21376 11.2024C8.80512 11.2024 8.95296 11.229 9.11004 11.3795C9.21168 11.4769 9.29484 11.6008 9.29484 11.6451C9.29484 11.6894 9.21168 12.1232 9.11004 12.5925C8.99916 13.0707 8.8698 13.5754 8.80512 13.717C8.74044 13.8587 8.61108 14.0269 8.50944 14.0889C8.4078 14.1598 8.07516 14.2306 7.77024 14.266C7.40988 14.3014 7.08648 14.2749 6.84624 14.1952C6.58752 14.1155 6.45816 14.0092 6.38424 13.8321C6.31956 13.6551 6.3288 13.3983 6.41196 12.9467C6.47664 12.5925 6.61524 12.141 6.71688 11.9373Z" fill="#253237"/>
</svg>