<svg xmlns="http://www.w3.org/2000/svg" width="80" height="80" viewBox="0 0 80 80" fill="none">
  <g clip-path="url(#clip0_0_332)">
    <path d="M10.0007 63.3331V18.9997C10.0004 18.3155 10.2108 17.6477 10.6032 17.0872C10.9956 16.5266 11.551 16.1004 12.194 15.8664L44.4307 4.1464C44.6825 4.05475 44.9527 4.02518 45.2183 4.06018C45.484 4.09518 45.7373 4.19373 45.9568 4.34747C46.1763 4.5012 46.3555 4.7056 46.4792 4.94333C46.6029 5.18105 46.6674 5.44509 46.6673 5.71307V22.2231L67.7207 29.2397C68.3847 29.4609 68.9622 29.8855 69.3715 30.4532C69.7807 31.021 70.0008 31.7032 70.0007 32.4031V63.3331H76.6673V69.9997H3.33398V63.3331H10.0007ZM16.6673 63.3331H40.0007V12.8497L16.6673 21.3364V63.3331ZM63.334 63.3331V34.8064L46.6673 29.2497V63.3331H63.334Z" fill="#03053D"/>
  </g>
  <defs>
    <clipPath id="clip0_0_332">
      <rect width="80" height="80" fill="white"/>
    </clipPath>
  </defs>
</svg>