<svg xmlns="http://www.w3.org/2000/svg" width="36" height="36" viewBox="0 0 36 36" fill="none">
  <rect x="0.5" y="0.5" width="35" height="35" rx="4.5" stroke="#A7A6A6"/>
  <path d="M21.027 10.7012V10.698H21.871L22.1794 10.7596C22.385 10.7996 22.5717 10.852 22.7394 10.9168C22.9071 10.9816 23.0694 11.0573 23.2263 11.1437C23.3832 11.2302 23.5255 11.3182 23.6532 11.4079C23.7798 11.4965 23.8934 11.5905 23.9941 11.69C24.0936 11.7904 24.2489 11.8164 24.4599 11.7678C24.6709 11.7191 24.8981 11.6516 25.1416 11.5651C25.385 11.4787 25.6258 11.3815 25.8638 11.2734C26.1019 11.1653 26.2469 11.0967 26.2988 11.0675C26.3497 11.0373 26.3767 11.0211 26.38 11.0189L26.3832 11.0141L26.3994 11.006L26.4157 10.9979L26.4319 10.9897L26.4481 10.9816L26.4514 10.9768L26.4563 10.9735L26.4611 10.9703L26.4644 10.9654L26.4806 10.9606L26.4968 10.9573L26.4936 10.9816L26.4887 11.006L26.4806 11.0303L26.4725 11.0546L26.4644 11.0708L26.4563 11.087L26.4481 11.1113C26.4427 11.1275 26.4373 11.1491 26.4319 11.1761C26.4265 11.2032 26.3751 11.3112 26.2777 11.5003C26.1803 11.6894 26.0586 11.8812 25.9125 12.0757C25.7664 12.2702 25.6355 12.4172 25.5197 12.5166C25.4029 12.6171 25.3255 12.6873 25.2876 12.7273C25.2498 12.7683 25.2038 12.8062 25.1497 12.8407L25.0685 12.8942L25.0523 12.9023L25.0361 12.9104L25.0328 12.9153L25.0279 12.9186L25.0231 12.9218L25.0198 12.9267L25.0036 12.9348L24.9874 12.9429L24.9841 12.9477L24.9792 12.951L24.9744 12.9542L24.9711 12.9591L24.9679 12.9639L24.963 12.9672L24.9581 12.9704L24.9549 12.9753H25.0361L25.4905 12.878C25.7935 12.8132 26.0829 12.7349 26.3589 12.643L26.7971 12.4971L26.8458 12.4809L26.8701 12.4728L26.8864 12.4647L26.9026 12.4566L26.9188 12.4485L26.9351 12.4404L26.9675 12.4355L27 12.4323V12.4647L26.9919 12.468L26.9838 12.4728L26.9805 12.4777L26.9756 12.4809L26.9708 12.4842L26.9675 12.489L26.9643 12.4939L26.9594 12.4971L26.9545 12.5004L26.9513 12.5052L26.9481 12.5101L26.9432 12.5133L26.9351 12.5295L26.9269 12.5458L26.9221 12.549C26.9199 12.5522 26.8512 12.6441 26.7159 12.8245C26.5807 13.0061 26.5077 13.0979 26.4968 13.1001C26.486 13.1033 26.4709 13.1195 26.4514 13.1487C26.433 13.179 26.3183 13.2994 26.1073 13.5102C25.8963 13.7209 25.6896 13.9083 25.4873 14.0726C25.2839 14.2379 25.1811 14.4411 25.1789 14.682C25.1757 14.9219 25.1632 15.1931 25.1416 15.4957C25.1199 15.7982 25.0793 16.1251 25.0198 16.4763C24.9603 16.8275 24.8683 17.2246 24.7439 17.6676C24.6195 18.1106 24.468 18.5429 24.2894 18.9643C24.1109 19.3857 23.9242 19.7639 23.7295 20.0989C23.5347 20.4339 23.3562 20.7175 23.1939 20.9498C23.0315 21.1821 22.8665 21.4009 22.6988 21.6063C22.5311 21.8116 22.319 22.0428 22.0626 22.3C21.805 22.5561 21.6644 22.6965 21.6406 22.7214C21.6157 22.7452 21.5097 22.8338 21.3224 22.9872C21.1363 23.1417 20.9361 23.2962 20.7219 23.4508C20.5087 23.6042 20.3129 23.7323 20.1343 23.8349C19.9558 23.9376 19.7405 24.0548 19.4884 24.1866C19.2373 24.3195 18.9657 24.4427 18.6736 24.5562C18.3814 24.6696 18.073 24.775 17.7484 24.8723C17.4238 24.9695 17.11 25.0451 16.807 25.0992C16.5041 25.1532 16.1605 25.1991 15.7764 25.2369L15.2002 25.2937V25.3018H14.1452V25.2937L14.0072 25.2856C13.9152 25.2802 13.8395 25.2748 13.78 25.2694C13.7205 25.264 13.4959 25.2342 13.1064 25.1802C12.7168 25.1262 12.4112 25.0721 12.1893 25.0181C11.9675 24.9641 11.6375 24.8614 11.1993 24.7102C10.761 24.5589 10.3861 24.406 10.0745 24.2515C9.76392 24.098 9.56915 24.0008 9.49016 23.9597C9.41225 23.9197 9.3246 23.87 9.22722 23.8106L9.08114 23.7215L9.07791 23.7166L9.07302 23.7134L9.06815 23.7101L9.06491 23.7052L9.04868 23.6971L9.03245 23.689L9.02922 23.6842L9.02433 23.6809L9.01946 23.6777L9.01622 23.6728L9.01299 23.668L9.0081 23.6647H8.99998V23.6323L9.01622 23.6355L9.03245 23.6404L9.10549 23.6485C9.15418 23.6539 9.28673 23.662 9.50314 23.6728C9.71956 23.6836 9.94949 23.6836 10.193 23.6728C10.4364 23.662 10.6853 23.6377 10.9396 23.5999C11.1939 23.5621 11.4941 23.4972 11.8404 23.4054C12.1867 23.3135 12.5048 23.2044 12.7948 23.078C13.0837 22.9505 13.2893 22.8554 13.4115 22.7927C13.5327 22.7311 13.7178 22.6166 13.9666 22.4491L14.3399 22.1979L14.3432 22.193L14.348 22.1898L14.3529 22.1865L14.3562 22.1817L14.3594 22.1768L14.3643 22.1736L14.3692 22.1703L14.3724 22.1654L14.3886 22.1606L14.4049 22.1573L14.4081 22.1411L14.413 22.1249L14.4179 22.1217L14.4211 22.1168L14.2912 22.1087C14.2047 22.1033 14.1208 22.0979 14.0397 22.0925C13.9585 22.0871 13.8314 22.0628 13.6582 22.0196C13.4851 21.9763 13.2985 21.9115 13.0983 21.8251C12.8981 21.7386 12.7033 21.636 12.514 21.5171C12.3246 21.3983 12.1877 21.2994 12.1033 21.2205C12.02 21.1427 11.9118 21.0325 11.7787 20.8898C11.6467 20.7461 11.532 20.5986 11.4346 20.4474C11.3372 20.2961 11.2442 20.1216 11.1555 19.9238L11.0207 19.6288L11.0126 19.6045L11.0045 19.5802L10.9996 19.564L10.9964 19.5478L11.0207 19.551L11.0451 19.5559L11.2236 19.5802C11.3426 19.5964 11.5293 19.6018 11.7836 19.5964C12.0379 19.591 12.2137 19.5802 12.3111 19.564C12.4085 19.5478 12.468 19.537 12.4896 19.5316L12.5221 19.5235L12.5627 19.5154L12.6032 19.5073L12.6065 19.5024L12.6113 19.4992L12.6162 19.4959L12.6195 19.4911L12.587 19.483L12.5545 19.4749L12.5221 19.4667L12.4896 19.4586L12.4572 19.4505C12.4355 19.4451 12.3977 19.4343 12.3435 19.4181C12.2894 19.4019 12.1434 19.3425 11.9053 19.2398C11.6673 19.1372 11.4779 19.0372 11.3372 18.94C11.1962 18.8424 11.0617 18.7358 10.9347 18.6207C10.8081 18.504 10.6691 18.3538 10.5176 18.1701C10.3661 17.9864 10.2308 17.773 10.1118 17.5298C9.99278 17.2867 9.90351 17.0544 9.84399 16.8329C9.78471 16.6127 9.7456 16.3875 9.72714 16.1602L9.69791 15.8199L9.71414 15.8231L9.73037 15.828L9.7466 15.8361L9.76283 15.8442L9.77907 15.8523L9.7953 15.8604L10.0469 15.9738C10.2146 16.0495 10.4229 16.1143 10.6718 16.1683C10.9206 16.2224 11.0694 16.2521 11.1181 16.2575L11.1911 16.2656H11.3372L11.334 16.2607L11.3291 16.2575L11.3242 16.2542L11.321 16.2494L11.3178 16.2445L11.3129 16.2413L11.308 16.238L11.3048 16.2332L11.2885 16.2251L11.2723 16.217L11.2691 16.2121L11.2642 16.2089L11.2593 16.2056L11.2561 16.2008L11.2398 16.1926L11.2236 16.1845L11.2204 16.1797C11.2171 16.1775 11.1706 16.1429 11.0808 16.0759C10.992 16.0079 10.899 15.9198 10.8016 15.8118C10.7042 15.7037 10.6068 15.5902 10.5095 15.4714C10.4119 15.3522 10.325 15.2248 10.2498 15.0905C10.174 14.9554 10.0939 14.7836 10.0095 14.575C9.92623 14.3676 9.86293 14.1585 9.81964 13.9478C9.77637 13.7371 9.75202 13.5291 9.7466 13.3238C9.7412 13.1184 9.7466 12.9429 9.76283 12.797C9.77907 12.6511 9.81153 12.4863 9.86022 12.3026C9.90891 12.1189 9.97926 11.9244 10.0712 11.7191L10.2092 11.4112L10.2173 11.3869L10.2254 11.3625L10.2303 11.3593L10.2335 11.3544L10.2368 11.3496L10.2416 11.3463L10.2465 11.3496L10.2498 11.3544L10.253 11.3593L10.2579 11.3625L10.2628 11.3658L10.266 11.3706L10.2692 11.3755L10.2741 11.3788L10.2822 11.395L10.2903 11.4112L10.2952 11.4144L10.2985 11.4193L10.5176 11.6624C10.6636 11.8245 10.8368 12.0055 11.037 12.2054C11.2371 12.4053 11.3481 12.509 11.3697 12.5166C11.3913 12.5252 11.4184 12.5501 11.4508 12.5911C11.4833 12.6311 11.5915 12.7268 11.7755 12.878C11.9594 13.0293 12.2002 13.2049 12.4977 13.4048C12.7953 13.6047 13.1253 13.8019 13.4878 13.9964C13.8503 14.1909 14.2399 14.3665 14.6564 14.5232C15.073 14.6799 15.3652 14.7825 15.5329 14.8311C15.7006 14.8798 15.9874 14.9419 16.3931 15.0175C16.7989 15.0932 17.1046 15.1418 17.3102 15.1634C17.5158 15.185 17.6564 15.1975 17.7322 15.2007L17.8458 15.2039L17.8426 15.1796L17.8377 15.1553L17.8052 14.9527C17.7836 14.8176 17.7728 14.6285 17.7728 14.3854C17.7728 14.1423 17.7917 13.9181 17.8296 13.7128C17.8674 13.5075 17.9243 13.2994 18 13.0887C18.0757 12.878 18.1499 12.7089 18.2223 12.5814C18.2959 12.455 18.3922 12.3107 18.5113 12.1487C18.6303 11.9866 18.7845 11.8191 18.9738 11.6462C19.1632 11.4733 19.3796 11.3193 19.6231 11.1843C19.8665 11.0492 20.0911 10.9465 20.2966 10.8763C20.5022 10.8061 20.6754 10.7601 20.816 10.7385C20.9567 10.7169 21.027 10.7045 21.027 10.7012Z" fill="#4F4D4D"/>
</svg>